<svg width="32" height="32" viewBox="0 0 32 32" fill="none" xmlns="http://www.w3.org/2000/svg">
  <!-- 背景圆 -->
  <circle cx="16" cy="16" r="16" fill="url(#bgGradient)"/>
  
  <!-- Twitter鸟简化版 -->
  <g transform="translate(6, 8)">
    <path d="M4 8c-1.5 0-2.5-1-2.5-2.5s1-2.5 2.5-2.5c3 0 6 1.5 9 4l-1.5 1c-2-1.5-4-2.5-6-2.5-1 0-1.5 0.5-1.5 1s0.5 1 1.5 1c2.5 0 5 2 5 4.5 0 2-1.5 3.5-3.5 3.5-1.5 0-3-1-4-2l1-1c0.5 0.5 1.5 1 2.5 1 1 0 1.5-0.5 1.5-1.5 0-1.5-1.5-3-4-3z" fill="white"/>
  </g>
  
  <!-- X符号简化版 -->
  <g transform="translate(18, 10)">
    <path d="M2 2L6 6M6 2L2 6" stroke="url(#xGradient)" stroke-width="2" stroke-linecap="round"/>
  </g>
  
  <!-- 渐变定义 -->
  <defs>
    <!-- 背景渐变 -->
    <linearGradient id="bgGradient" x1="0%" y1="0%" x2="100%" y2="100%">
      <stop offset="0%" stop-color="#1DA1F2"/>
      <stop offset="50%" stop-color="#3B82F6"/>
      <stop offset="100%" stop-color="#6366F1"/>
    </linearGradient>
    
    <!-- X渐变 -->
    <linearGradient id="xGradient" x1="0%" y1="0%" x2="100%" y2="100%">
      <stop offset="0%" stop-color="#F59E0B"/>
      <stop offset="100%" stop-color="#EF4444"/>
    </linearGradient>
  </defs>
</svg>
