<svg width="512" height="512" viewBox="0 0 512 512" fill="none" xmlns="http://www.w3.org/2000/svg">
  <!-- 渐变定义 -->
  <defs>
    <linearGradient id="bgGradient" x1="0%" y1="0%" x2="100%" y2="100%">
      <stop offset="0%" style="stop-color:#10B981;stop-opacity:1" />
      <stop offset="50%" style="stop-color:#06B6D4;stop-opacity:1" />
      <stop offset="100%" style="stop-color:#14B8A6;stop-opacity:1" />
    </linearGradient>
    <linearGradient id="textGradient" x1="0%" y1="0%" x2="100%" y2="100%">
      <stop offset="0%" style="stop-color:#ffffff;stop-opacity:1" />
      <stop offset="100%" style="stop-color:#f5f3ff;stop-opacity:1" />
    </linearGradient>
    <linearGradient id="accentGradient" x1="0%" y1="0%" x2="100%" y2="100%">
      <stop offset="0%" style="stop-color:#34D399;stop-opacity:1" />
      <stop offset="100%" style="stop-color:#059669;stop-opacity:1" />
    </linearGradient>
  </defs>
  
  <!-- 背景 -->
  <rect width="512" height="512" rx="112" fill="url(#bgGradient)"/>
  
  <!-- 主要设计：字母 T 和 X 的组合 -->
  <!-- T 字母 (Twitter) -->
  <rect x="128" y="128" width="256" height="48" rx="24" fill="url(#textGradient)"/>
  <rect x="232" y="128" width="48" height="192" rx="24" fill="url(#textGradient)"/>
  
  <!-- X 字母装饰 -->
  <path d="M320 224L384 288M384 224L320 288" stroke="url(#textGradient)" stroke-width="40" stroke-linecap="round"/>
  
  <!-- API 数据流动效果 -->
  <circle cx="160" cy="384" r="24" fill="url(#accentGradient)" opacity="0.8">
    <animate attributeName="opacity" values="0.3;0.8;0.3" dur="2s" repeatCount="indefinite"/>
  </circle>
  <circle cx="224" cy="416" r="16" fill="url(#accentGradient)" opacity="0.6">
    <animate attributeName="opacity" values="0.2;0.6;0.2" dur="2.5s" repeatCount="indefinite"/>
  </circle>
  <circle cx="288" cy="384" r="20" fill="url(#accentGradient)" opacity="0.7">
    <animate attributeName="opacity" values="0.4;0.7;0.4" dur="1.8s" repeatCount="indefinite"/>
  </circle>
  <circle cx="352" cy="400" r="12" fill="url(#accentGradient)" opacity="0.5">
    <animate attributeName="opacity" values="0.1;0.5;0.1" dur="3s" repeatCount="indefinite"/>
  </circle>
  
  <!-- 装饰性线条 -->
  <path d="M80 360 Q 120 340, 160 360 T 240 360" stroke="url(#accentGradient)" stroke-width="8" fill="none" opacity="0.6">
    <animate attributeName="opacity" values="0.2;0.6;0.2" dur="4s" repeatCount="indefinite"/>
  </path>
  <path d="M280 380 Q 320 360, 360 380 T 440 380" stroke="url(#accentGradient)" stroke-width="6" fill="none" opacity="0.4">
    <animate attributeName="opacity" values="0.1;0.4;0.1" dur="3.5s" repeatCount="indefinite"/>
  </path>
  
  <!-- 边角装饰 -->
  <circle cx="80" cy="80" r="8" fill="white" opacity="0.3"/>
  <circle cx="432" cy="80" r="8" fill="white" opacity="0.3"/>
  <circle cx="80" cy="432" r="8" fill="white" opacity="0.3"/>
  <circle cx="432" cy="432" r="8" fill="white" opacity="0.3"/>
</svg> 